<svg width="21" height="21" viewBox="0 0 21 21" fill="none" xmlns="http://www.w3.org/2000/svg">
<path d="M12.8387 10.1036H10.1069M10.1069 10.1036H7.37515M10.1069 10.1036V7.37183M10.1069 10.1036V12.8354" stroke="#1C274C" stroke-width="2" stroke-linecap="round"/>
<path d="M19.2119 10.106C19.2119 14.3985 19.2119 16.5449 17.8784 17.8784C16.5449 19.2119 14.3985 19.2119 10.106 19.2119C5.81337 19.2119 3.66707 19.2119 2.33354 17.8784C1 16.5449 1 14.3985 1 10.106C1 5.81337 1 3.66707 2.33354 2.33354C3.66707 1 5.81337 1 10.106 1C14.3985 1 16.5449 1 17.8784 2.33354C18.7651 3.22022 19.0622 4.46623 19.1617 6.46358" stroke="#1C274C" stroke-width="2" stroke-linecap="round"/>
</svg>
